# xmcd
#
# Track frame offsets: 
#        150
#        19507
#        36076
#        53972
#        77263
#
# Disc length: 1257 seconds
#
# Revision: 0
# Processed by: cddbd v1.5.2PL0 Copyright (c) Steve Scherf et al.
# Submitted via: ExactAudioCopy v1.0b1
#
DISCID=2c04e705
DTITLE=Miriam's Well - Miriam's Well
DYEAR=2006
DGENRE=Blues
TTITLE0=Turn The Light On Me
TTITLE1=To Be With You
TTITLE2=Tell Me
TTITLE3=Odessa
TTITLE4=Uner The Sun
EXTD=
EXTT0=
EXTT1=
EXTT2=
EXTT3=
EXTT4=
PLAYORDER=
